

IMDB: 
http://www.imdb.com/title/tt1745740/

PLOT INFO:
17-year-old Eli has just moved with his family deep into the backwoods of Kentucky to work on the isolated farm of a local recluse. Inexplicably drawn into the strange forest that lies beyond the farm, Eli encounters the beautiful, sweet and mysterious AmandaΓÇô seemingly the perfect girl. But with the discovery of decaying bodies hanging from the trees, he realizes that the forest...and Amanda...are harboring some very dark secrets. Suddenly, Eli is living in a waking nightmare where the lines between life and death are scrawled in blood, and there is no escaping the terror from beyond the grave.


MEDIAINFO:
General
Complete name                    : Last.Kind.Words.2012.DVDRiP.AC3-5.1.XviD-AXED.avi
Format                           : AVI
Format/Info                      : Audio Video Interleave
File size                        : 1.37 GiB
Duration                         : 1h 26mn
Overall bit rate                 : 2 260 Kbps

Video
ID                               : 0
Format                           : MPEG-4 Visual
Format profile                   : Advanced Simple@L5
Format settings, BVOP            : 1
Format settings, QPel            : No
Format settings, GMC             : No warppoints
Format settings, Matrix          : Default (H.263)
Codec ID                         : XVID
Codec ID/Hint                    : XviD
Duration                         : 1h 26mn
Bit rate                         : 1 805 Kbps
Width                            : 720 pixels
Height                           : 304 pixels
Display aspect ratio             : 2.35:1
Frame rate                       : 23.976 fps
Color space                      : YUV
Chroma subsampling               : 4:2:0
Bit depth                        : 8 bits
Scan type                        : Progressive
Compression mode                 : Lossy
Bits/(Pixel*Frame)               : 0.344
Stream size                      : 1.10 GiB (80%)
Writing library                  : XviD 1.2.1 (UTC 2008-12-04)

Audio
ID                               : 1
Format                           : AC-3
Format/Info                      : Audio Coding 3
Mode extension                   : CM (complete main)
Codec ID                         : 2000
Duration                         : 1h 26mn
Bit rate mode                    : Constant
Bit rate                         : 448 Kbps
Channel(s)                       : 6 channels
Channel positions                : Front: L C R, Side: L R, LFE
Sampling rate                    : 48.0 KHz
Bit depth                        : 16 bits
Compression mode                 : Lossy
Stream size                      : 278 MiB (20%)
Alignment                        : Aligned on interleaves
Interleave, duration             : 64 ms (1.53 video frames)
Interleave, preload duration     : 192 ms
Title                            : VTS_06_1 T80 3_2ch 448Kbps DELAY 0ms




SOURCE:
RETAIL NTSC DVD


NOTES:
Don't know much about about this. New release horror starring Brad Dourif(Child's Play/Rob Zombie's Halloween/Halloween II). May 21st retail date. DVD9 to follow.

AXED! - We do this better!


 
http://imgbox.com/g/Lgbf3MnRYv